<svg xmlns="http://www.w3.org/2000/svg" xmlns:xlink="http://www.w3.org/1999/xlink" width="1000" zoomAndPan="magnify" viewBox="0 0 750 749.999995" height="1000" preserveAspectRatio="xMidYMid meet" version="1.0"><path fill="#2148c0" d="M 374.878906 645.917969 C 281.050781 645.917969 198.105469 597.878906 149.691406 525.816406 C 150.816406 450.753906 299.816406 409.472656 374.878906 409.472656 C 449.941406 409.472656 598.941406 450.753906 600.066406 525.816406 C 551.652344 597.878906 468.707031 645.917969 374.878906 645.917969 M 374.878906 112.972656 C 376.722656 112.972656 378.5625 113.019531 380.402344 113.109375 C 382.242188 113.199219 384.082031 113.335938 385.914062 113.515625 C 387.75 113.695312 389.578125 113.921875 391.398438 114.191406 C 393.222656 114.464844 395.039062 114.777344 396.84375 115.136719 C 398.652344 115.496094 400.449219 115.902344 402.238281 116.347656 C 404.023438 116.796875 405.800781 117.289062 407.5625 117.824219 C 409.328125 118.355469 411.074219 118.933594 412.808594 119.554688 C 414.546875 120.175781 416.265625 120.839844 417.964844 121.542969 C 419.667969 122.25 421.351562 122.996094 423.019531 123.785156 C 424.683594 124.570312 426.328125 125.398438 427.953125 126.269531 C 429.578125 127.136719 431.183594 128.046875 432.761719 128.992188 C 434.34375 129.941406 435.898438 130.925781 437.433594 131.949219 C 438.964844 132.972656 440.46875 134.035156 441.949219 135.132812 C 443.429688 136.230469 444.882812 137.363281 446.308594 138.53125 C 447.730469 139.699219 449.125 140.902344 450.492188 142.140625 C 451.855469 143.378906 453.191406 144.648438 454.496094 145.953125 C 455.796875 147.253906 457.066406 148.589844 458.304688 149.953125 C 459.542969 151.320312 460.746094 152.714844 461.914062 154.140625 C 463.082031 155.5625 464.21875 157.015625 465.316406 158.496094 C 466.414062 159.976562 467.472656 161.480469 468.496094 163.015625 C 469.519531 164.546875 470.507812 166.101562 471.453125 167.683594 C 472.402344 169.261719 473.308594 170.867188 474.175781 172.492188 C 475.046875 174.117188 475.875 175.761719 476.664062 177.429688 C 477.449219 179.09375 478.195312 180.777344 478.902344 182.480469 C 479.605469 184.183594 480.269531 185.902344 480.890625 187.636719 C 481.511719 189.371094 482.089844 191.121094 482.625 192.882812 C 483.160156 194.648438 483.648438 196.421875 484.097656 198.210938 C 484.546875 199.996094 484.949219 201.792969 485.308594 203.601562 C 485.667969 205.410156 485.984375 207.222656 486.253906 209.046875 C 486.523438 210.871094 486.75 212.699219 486.929688 214.53125 C 487.109375 216.367188 487.246094 218.203125 487.335938 220.042969 C 487.425781 221.882812 487.472656 223.726562 487.472656 225.566406 C 487.472656 227.410156 487.425781 229.253906 487.335938 231.09375 C 487.246094 232.933594 487.109375 234.769531 486.929688 236.605469 C 486.75 238.4375 486.523438 240.265625 486.253906 242.089844 C 485.984375 243.910156 485.667969 245.726562 485.308594 247.535156 C 484.949219 249.339844 484.546875 251.136719 484.097656 252.925781 C 483.648438 254.714844 483.160156 256.488281 482.625 258.253906 C 482.089844 260.015625 481.511719 261.765625 480.890625 263.5 C 480.269531 265.234375 479.605469 266.953125 478.902344 268.65625 C 478.195312 270.359375 477.449219 272.042969 476.664062 273.707031 C 475.875 275.375 475.046875 277.019531 474.175781 278.644531 C 473.308594 280.269531 472.402344 281.871094 471.453125 283.453125 C 470.507812 285.03125 469.519531 286.589844 468.496094 288.121094 C 467.472656 289.652344 466.414062 291.160156 465.316406 292.640625 C 464.21875 294.121094 463.082031 295.570312 461.914062 296.996094 C 460.746094 298.421875 459.542969 299.816406 458.304688 301.179688 C 457.066406 302.546875 455.796875 303.878906 454.496094 305.183594 C 453.191406 306.488281 451.855469 307.757812 450.492188 308.996094 C 449.125 310.230469 447.730469 311.433594 446.308594 312.605469 C 444.882812 313.773438 443.429688 314.90625 441.949219 316.003906 C 440.46875 317.101562 438.964844 318.164062 437.433594 319.1875 C 435.898438 320.210938 434.34375 321.195312 432.761719 322.144531 C 431.183594 323.089844 429.578125 323.996094 427.953125 324.867188 C 426.328125 325.734375 424.683594 326.5625 423.019531 327.351562 C 421.351562 328.140625 419.667969 328.886719 417.964844 329.589844 C 416.265625 330.296875 414.546875 330.960938 412.808594 331.578125 C 411.074219 332.199219 409.328125 332.777344 407.5625 333.3125 C 405.800781 333.847656 404.023438 334.339844 402.238281 334.789062 C 400.449219 335.234375 398.652344 335.636719 396.84375 336 C 395.039062 336.359375 393.222656 336.671875 391.398438 336.941406 C 389.578125 337.214844 387.75 337.4375 385.914062 337.621094 C 384.082031 337.800781 382.242188 337.9375 380.402344 338.027344 C 378.5625 338.117188 376.722656 338.160156 374.878906 338.160156 C 373.035156 338.160156 371.195312 338.117188 369.355469 338.027344 C 367.511719 337.9375 365.675781 337.800781 363.84375 337.621094 C 362.007812 337.4375 360.179688 337.214844 358.359375 336.941406 C 356.535156 336.671875 354.71875 336.359375 352.914062 336 C 351.105469 335.636719 349.308594 335.234375 347.519531 334.789062 C 345.734375 334.339844 343.957031 333.847656 342.195312 333.3125 C 340.429688 332.777344 338.683594 332.199219 336.945312 331.578125 C 335.210938 330.960938 333.492188 330.296875 331.789062 329.589844 C 330.089844 328.886719 328.40625 328.140625 326.738281 327.351562 C 325.074219 326.5625 323.425781 325.734375 321.800781 324.867188 C 320.175781 323.996094 318.574219 323.089844 316.992188 322.144531 C 315.414062 321.195312 313.855469 320.210938 312.324219 319.1875 C 310.792969 318.164062 309.285156 317.101562 307.804688 316.003906 C 306.328125 314.90625 304.875 313.773438 303.449219 312.605469 C 302.027344 311.433594 300.628906 310.230469 299.265625 308.996094 C 297.898438 307.757812 296.566406 306.488281 295.261719 305.183594 C 293.960938 303.878906 292.691406 302.546875 291.453125 301.179688 C 290.214844 299.816406 289.011719 298.421875 287.84375 296.996094 C 286.671875 295.570312 285.539062 294.121094 284.441406 292.640625 C 283.34375 291.160156 282.285156 289.652344 281.261719 288.121094 C 280.238281 286.589844 279.25 285.03125 278.304688 283.453125 C 277.355469 281.871094 276.449219 280.269531 275.578125 278.644531 C 274.710938 277.019531 273.882812 275.375 273.09375 273.707031 C 272.308594 272.042969 271.5625 270.359375 270.855469 268.65625 C 270.152344 266.953125 269.488281 265.234375 268.867188 263.5 C 268.246094 261.765625 267.667969 260.015625 267.132812 258.253906 C 266.597656 256.488281 266.105469 254.714844 265.660156 252.925781 C 265.210938 251.136719 264.808594 249.339844 264.449219 247.535156 C 264.089844 245.726562 263.773438 243.910156 263.503906 242.089844 C 263.234375 240.265625 263.007812 238.4375 262.828125 236.605469 C 262.644531 234.769531 262.511719 232.933594 262.421875 231.09375 C 262.332031 229.253906 262.285156 227.410156 262.285156 225.566406 C 262.285156 223.726562 262.332031 221.882812 262.421875 220.042969 C 262.511719 218.203125 262.644531 216.367188 262.828125 214.53125 C 263.007812 212.699219 263.234375 210.871094 263.503906 209.046875 C 263.773438 207.222656 264.089844 205.410156 264.449219 203.601562 C 264.808594 201.792969 265.210938 199.996094 265.660156 198.210938 C 266.105469 196.421875 266.597656 194.648438 267.132812 192.882812 C 267.667969 191.121094 268.246094 189.371094 268.867188 187.636719 C 269.488281 185.902344 270.152344 184.183594 270.855469 182.480469 C 271.5625 180.777344 272.308594 179.09375 273.09375 177.429688 C 273.882812 175.761719 274.710938 174.117188 275.578125 172.492188 C 276.449219 170.867188 277.355469 169.261719 278.304688 167.683594 C 279.25 166.101562 280.238281 164.546875 281.261719 163.015625 C 282.285156 161.480469 283.34375 159.976562 284.441406 158.496094 C 285.539062 157.015625 286.671875 155.5625 287.84375 154.140625 C 289.011719 152.714844 290.214844 151.320312 291.453125 149.953125 C 292.691406 148.589844 293.960938 147.253906 295.261719 145.953125 C 296.566406 144.648438 297.898438 143.378906 299.265625 142.140625 C 300.628906 140.902344 302.027344 139.699219 303.449219 138.53125 C 304.875 137.363281 306.328125 136.230469 307.808594 135.132812 C 309.285156 134.035156 310.792969 132.972656 312.324219 131.949219 C 313.855469 130.925781 315.414062 129.941406 316.992188 128.992188 C 318.574219 128.046875 320.175781 127.136719 321.800781 126.269531 C 323.425781 125.402344 325.074219 124.570312 326.738281 123.785156 C 328.40625 122.996094 330.089844 122.25 331.789062 121.542969 C 333.492188 120.839844 335.210938 120.175781 336.945312 119.554688 C 338.683594 118.933594 340.429688 118.355469 342.195312 117.824219 C 343.957031 117.289062 345.734375 116.796875 347.519531 116.347656 C 349.308594 115.902344 351.105469 115.496094 352.914062 115.136719 C 354.71875 114.777344 356.535156 114.464844 358.359375 114.191406 C 360.179688 113.921875 362.007812 113.695312 363.84375 113.515625 C 365.675781 113.335938 367.511719 113.199219 369.355469 113.109375 C 371.195312 113.019531 373.035156 112.972656 374.878906 112.972656 M 374.878906 0.378906 C 368.738281 0.378906 362.597656 0.53125 356.464844 0.832031 C 350.328125 1.132812 344.203125 1.585938 338.089844 2.1875 C 331.980469 2.789062 325.882812 3.542969 319.808594 4.441406 C 313.734375 5.34375 307.683594 6.394531 301.660156 7.59375 C 295.632812 8.789062 289.644531 10.136719 283.683594 11.628906 C 277.726562 13.121094 271.808594 14.757812 265.929688 16.542969 C 260.054688 18.324219 254.222656 20.25 248.441406 22.320312 C 242.65625 24.390625 236.925781 26.597656 231.253906 28.949219 C 225.578125 31.300781 219.964844 33.789062 214.410156 36.414062 C 208.859375 39.039062 203.375 41.800781 197.957031 44.695312 C 192.539062 47.59375 187.199219 50.617188 181.929688 53.777344 C 176.660156 56.933594 171.472656 60.21875 166.367188 63.632812 C 161.257812 67.042969 156.238281 70.582031 151.304688 74.238281 C 146.371094 77.898438 141.53125 81.675781 136.78125 85.574219 C 132.035156 89.46875 127.386719 93.480469 122.835938 97.605469 C 118.28125 101.730469 113.835938 105.964844 109.492188 110.308594 C 105.148438 114.648438 100.914062 119.097656 96.789062 123.648438 C 92.664062 128.199219 88.65625 132.847656 84.757812 137.597656 C 80.863281 142.34375 77.082031 147.1875 73.425781 152.121094 C 69.765625 157.054688 66.230469 162.074219 62.816406 167.179688 C 59.40625 172.289062 56.121094 177.476562 52.960938 182.742188 C 49.804688 188.011719 46.777344 193.355469 43.882812 198.773438 C 40.988281 204.1875 38.226562 209.671875 35.601562 215.226562 C 32.972656 220.777344 30.484375 226.390625 28.136719 232.066406 C 25.785156 237.742188 23.574219 243.46875 21.503906 249.253906 C 19.4375 255.039062 17.511719 260.867188 15.726562 266.746094 C 13.945312 272.625 12.304688 278.542969 10.8125 284.5 C 9.320312 290.457031 7.976562 296.449219 6.777344 302.472656 C 5.578125 308.496094 4.53125 314.546875 3.628906 320.625 C 2.726562 326.699219 1.976562 332.792969 1.375 338.90625 C 0.769531 345.019531 0.320312 351.140625 0.0195312 357.277344 C -0.28125 363.410156 -0.433594 369.550781 -0.433594 375.691406 C -0.433594 381.835938 -0.28125 387.972656 0.0195312 394.109375 C 0.320312 400.242188 0.769531 406.367188 1.375 412.480469 C 1.976562 418.59375 2.726562 424.6875 3.628906 430.761719 C 4.53125 436.839844 5.578125 442.886719 6.777344 448.914062 C 7.976562 454.9375 9.320312 460.929688 10.8125 466.886719 C 12.304688 472.84375 13.945312 478.761719 15.726562 484.640625 C 17.511719 490.519531 19.4375 496.347656 21.503906 502.132812 C 23.574219 507.914062 25.785156 513.644531 28.136719 519.320312 C 30.484375 524.992188 32.972656 530.605469 35.601562 536.160156 C 38.226562 541.710938 40.988281 547.195312 43.882812 552.613281 C 46.777344 558.03125 49.804688 563.375 52.960938 568.640625 C 56.121094 573.910156 59.40625 579.097656 62.816406 584.207031 C 66.230469 589.3125 69.765625 594.332031 73.425781 599.265625 C 77.082031 604.199219 80.863281 609.039062 84.757812 613.789062 C 88.65625 618.535156 92.664062 623.1875 96.789062 627.738281 C 100.914062 632.289062 105.148438 636.734375 109.492188 641.078125 C 113.835938 645.421875 118.28125 649.65625 122.835938 653.78125 C 127.386719 657.90625 132.035156 661.917969 136.78125 665.8125 C 141.53125 669.710938 146.371094 673.488281 151.304688 677.148438 C 156.238281 680.804688 161.257812 684.339844 166.367188 687.753906 C 171.472656 691.167969 176.660156 694.453125 181.929688 697.609375 C 187.199219 700.765625 192.539062 703.792969 197.957031 706.6875 C 203.375 709.585938 208.859375 712.34375 214.410156 714.972656 C 219.964844 717.597656 225.578125 720.085938 231.253906 722.4375 C 236.925781 724.785156 242.65625 726.996094 248.441406 729.066406 C 254.222656 731.136719 260.054688 733.0625 265.929688 734.84375 C 271.808594 736.628906 277.726562 738.265625 283.683594 739.757812 C 289.644531 741.25 295.632812 742.59375 301.660156 743.792969 C 307.683594 744.992188 313.734375 746.042969 319.808594 746.941406 C 325.882812 747.84375 331.980469 748.597656 338.089844 749.199219 C 344.203125 749.800781 350.328125 750.25 356.464844 750.554688 C 362.597656 750.855469 368.738281 751.003906 374.878906 751.003906 C 381.019531 751.003906 387.160156 750.855469 393.292969 750.554688 C 399.429688 750.25 405.554688 749.800781 411.664062 749.199219 C 417.777344 748.597656 423.871094 747.84375 429.949219 746.941406 C 436.023438 746.042969 442.074219 744.992188 448.097656 743.792969 C 454.121094 742.59375 460.113281 741.25 466.070312 739.757812 C 472.03125 738.265625 477.949219 736.628906 483.824219 734.84375 C 489.703125 733.0625 495.535156 731.136719 501.316406 729.066406 C 507.101562 726.996094 512.828125 724.785156 518.503906 722.4375 C 524.179688 720.085938 529.792969 717.597656 535.34375 714.972656 C 540.898438 712.34375 546.382812 709.585938 551.800781 706.6875 C 557.214844 703.792969 562.558594 700.765625 567.828125 697.609375 C 573.097656 694.453125 578.285156 691.167969 583.390625 687.753906 C 588.5 684.339844 593.519531 680.804688 598.453125 677.148438 C 603.386719 673.488281 608.226562 669.710938 612.972656 665.8125 C 617.722656 661.917969 622.371094 657.90625 626.921875 653.78125 C 631.472656 649.65625 635.921875 645.421875 640.265625 641.078125 C 644.609375 636.734375 648.84375 632.289062 652.96875 627.738281 C 657.089844 623.1875 661.101562 618.535156 665 613.789062 C 668.894531 609.039062 672.671875 604.199219 676.332031 599.265625 C 679.992188 594.332031 683.527344 589.3125 686.941406 584.207031 C 690.351562 579.097656 693.636719 573.910156 696.792969 568.640625 C 699.953125 563.375 702.980469 558.03125 705.875 552.613281 C 708.769531 547.195312 711.53125 541.710938 714.15625 536.160156 C 716.78125 530.605469 719.273438 524.992188 721.621094 519.320312 C 723.972656 513.644531 726.183594 507.914062 728.25 502.132812 C 730.320312 496.347656 732.246094 490.519531 734.03125 484.640625 C 735.8125 478.761719 737.449219 472.84375 738.945312 466.886719 C 740.4375 460.929688 741.78125 454.9375 742.980469 448.914062 C 744.179688 442.886719 745.226562 436.839844 746.128906 430.761719 C 747.03125 424.6875 747.78125 418.59375 748.382812 412.480469 C 748.984375 406.367188 749.4375 400.242188 749.738281 394.109375 C 750.039062 387.972656 750.191406 381.835938 750.191406 375.691406 C 750.191406 168.144531 581.300781 0.378906 374.878906 0.378906 Z M 374.878906 0.378906 " fill-opacity="1" fill-rule="nonzero"/></svg>